<?xml version="1.0"?>
<!-- Created with xTool Creative Space (https://www.xtool.com/pages/software) -->
<svg xmlns="http://www.w3.org/2000/svg" xmlns:xlink="http://www.w3.org/1999/xlink" xmlns:xcs="https://www.xtool.com/pages/software" version="1.1" preserveAspectRatio="xMinYMin meet" width="67.79588371707115mm" height="63.99695528803058mm" viewBox="77.40268904617832 110.00000000000004 67.79588371707115 63.99695528803058" xcs:version="1.4.10"><style></style>
<g transform="matrix(2.968866,0,0,2.968866,73.632229,162.786441)" stroke="none" fill="#000000" data-view-type="laser"><path transform="matrix(1,0,0,1,-7.10543e-15,-7.10543e-15)" stroke="none" fill="#000000" data-view-type="laser" d="M1.27 -17.78L6.4 -17.78Q7.47 -17.78 8.76 -17.72Q10.06 -17.65 11.42 -17.4Q12.78 -17.14 14.05 -16.57Q15.32 -16 16.32 -15.04Q17.32 -14.07 17.92 -12.56Q18.52 -11.05 18.52 -8.89Q18.52 -6.76 17.92 -5.27Q17.32 -3.78 16.34 -2.81Q15.37 -1.83 14.2 -1.26Q13.03 -0.69 11.85 -0.42Q10.67 -0.15 9.68 -0.08Q8.69 0 8.1 0L1.27 0L1.32 -0.3Q2.18 -0.3 2.68 -0.47Q3.18 -0.63 3.42 -1.17Q3.66 -1.7 3.73 -2.79Q3.81 -3.89 3.81 -5.74L3.81 -12.04Q3.81 -13.89 3.73 -14.99Q3.66 -16.08 3.42 -16.62Q3.18 -17.17 2.68 -17.34Q2.18 -17.5 1.32 -17.5ZM6.53 -0.61Q6.76 -0.58 7.02 -0.58Q7.29 -0.58 7.54 -0.58Q8.64 -0.58 9.84 -0.8Q11.05 -1.02 12.2 -1.55Q13.36 -2.08 14.29 -3.04Q15.21 -3.99 15.76 -5.42Q16.31 -6.86 16.31 -8.89Q16.31 -10.9 15.76 -12.33Q15.21 -13.77 14.3 -14.71Q13.39 -15.65 12.24 -16.19Q11.1 -16.74 9.89 -16.97Q8.69 -17.2 7.57 -17.2Q6.43 -17.2 5.59 -17.04L5.59 -5.44Q5.59 -3.68 5.64 -2.72Q5.69 -1.75 5.89 -1.3Q6.1 -0.84 6.53 -0.61Z" fill-rule="nonzero"></path></g><g transform="matrix(2.968866,0,0,2.968866,90.215171,173.996955)" stroke="none" fill="#000000" data-view-type="laser"><path transform="matrix(1,0,0,1,0,-7.10543e-15)" stroke="none" fill="#000000" data-view-type="laser" d="M1.27 -17.78L6.4 -17.78Q7.47 -17.78 8.76 -17.72Q10.06 -17.65 11.42 -17.4Q12.78 -17.14 14.05 -16.57Q15.32 -16 16.32 -15.04Q17.32 -14.07 17.92 -12.56Q18.52 -11.05 18.52 -8.89Q18.52 -6.76 17.92 -5.27Q17.32 -3.78 16.34 -2.81Q15.37 -1.83 14.2 -1.26Q13.03 -0.69 11.85 -0.42Q10.67 -0.15 9.68 -0.08Q8.69 0 8.1 0L1.27 0L1.32 -0.3Q2.18 -0.3 2.68 -0.47Q3.18 -0.63 3.42 -1.17Q3.66 -1.7 3.73 -2.79Q3.81 -3.89 3.81 -5.74L3.81 -12.04Q3.81 -13.89 3.73 -14.99Q3.66 -16.08 3.42 -16.62Q3.18 -17.17 2.68 -17.34Q2.18 -17.5 1.32 -17.5ZM6.53 -0.61Q6.76 -0.58 7.02 -0.58Q7.29 -0.58 7.54 -0.58Q8.64 -0.58 9.84 -0.8Q11.05 -1.02 12.2 -1.55Q13.36 -2.08 14.29 -3.04Q15.21 -3.99 15.76 -5.42Q16.31 -6.86 16.31 -8.89Q16.31 -10.9 15.76 -12.33Q15.21 -13.77 14.3 -14.71Q13.39 -15.65 12.24 -16.19Q11.1 -16.74 9.89 -16.97Q8.69 -17.2 7.57 -17.2Q6.43 -17.2 5.59 -17.04L5.59 -5.44Q5.59 -3.68 5.64 -2.72Q5.69 -1.75 5.89 -1.3Q6.1 -0.84 6.53 -0.61Z" fill-rule="nonzero"></path></g></svg>